<svg width="21" height="14" viewBox="0 0 21 14" fill="none" xmlns="http://www.w3.org/2000/svg">
<path d="M20.1485 1.29832C19.6053 0.352572 19.0157 0.178614 17.8154 0.112461C16.6163 0.0328324 13.6009 -0.000244141 10.9887 -0.000244141C8.37139 -0.000244141 5.35482 0.0328325 4.15695 0.111236C2.95909 0.178614 2.36829 0.351347 1.82005 1.29832C1.26054 2.24284 0.972656 3.86971 0.972656 6.73389C0.972656 6.73634 0.972656 6.73757 0.972656 6.73757C0.972656 6.74002 0.972656 6.74124 0.972656 6.74124V6.74369C0.972656 9.59563 1.26054 11.2348 1.82005 12.1695C2.36829 13.1152 2.95783 13.2867 4.1557 13.3664C5.35482 13.435 8.37139 13.4754 10.9887 13.4754C13.6009 13.4754 16.6163 13.435 17.8166 13.3676C19.017 13.2879 19.6065 13.1164 20.1498 12.1707C20.7143 11.236 20.9997 9.59685 20.9997 6.74492C20.9997 6.74492 20.9997 6.74125 20.9997 6.73879C20.9997 6.73879 20.9997 6.73634 20.9997 6.73512C20.9997 3.86971 20.7143 2.24284 20.1485 1.29832ZM8.48279 10.4127V3.0624L14.7412 6.73757L8.48279 10.4127Z" fill="#545761"/>
</svg>
